<?xml version="1.0" encoding="UTF-8" standalone="no"?>
<!DOCTYPE svg PUBLIC "-//W3C//DTD SVG 1.1//EN" "http://www.w3.org/Graphics/SVG/1.1/DTD/svg11.dtd">
<svg xmlns="http://www.w3.org/2000/svg" version="1.1" viewBox="0.00 0.00 225.00 225.00">
<path fill="#000000" d="
  M 68.00 107.60
  Q 67.99 105.87 67.44 107.51
  Q 65.91 112.07 61.23 111.04
  Q 48.27 108.16 36.85 102.22
  Q 33.91 100.69 34.77 97.74
  Q 39.65 81.08 46.84 61.12
  Q 48.52 56.47 50.93 51.75
  Q 52.79 48.11 56.44 47.08
  Q 64.28 44.86 74.48 42.40
  Q 79.58 41.18 84.04 39.02
  Q 84.51 38.79 84.63 38.28
  C 85.73 33.75 89.62 32.41 93.80 32.19
  Q 107.62 31.45 121.21 32.17
  Q 130.16 32.64 135.92 34.80
  Q 139.30 36.06 140.36 39.84
  Q 140.51 40.38 141.01 40.62
  Q 145.92 42.89 150.33 43.93
  Q 159.59 46.12 167.09 47.89
  Q 171.94 49.04 174.13 53.86
  C 180.97 68.93 185.89 84.62 190.07 99.99
  Q 190.73 102.46 187.98 103.79
  Q 174.10 110.46 161.11 111.64
  C 158.19 111.90 157.53 108.68 156.46 106.66
  Q 155.64 105.12 155.52 106.86
  Q 155.11 112.43 155.11 117.23
  Q 155.10 134.71 155.11 148.96
  Q 155.12 167.10 157.81 184.26
  Q 158.44 188.27 155.59 189.61
  Q 153.60 190.55 151.62 190.77
  Q 112.41 195.16 72.12 191.01
  C 69.28 190.72 64.55 189.41 64.86 185.72
  C 65.14 182.48 65.71 179.33 65.82 176.08
  C 66.36 159.59 66.67 143.58 67.53 127.20
  Q 68.04 117.43 68.00 107.60
  Z
  M 86.26 43.14
  C 88.71 52.68 95.37 62.31 101.75 69.53
  Q 104.07 72.16 106.78 73.97
  C 110.72 76.58 114.92 74.17 117.95 71.22
  Q 127.47 61.95 135.60 51.37
  C 139.40 46.42 141.77 37.95 133.31 35.68
  C 121.30 32.46 107.86 32.95 95.25 33.58
  C 89.50 33.87 84.48 36.17 86.26 43.14
  Z
  M 158.72 74.91
  Q 159.37 75.21 159.25 75.91
  Q 157.15 88.71 155.95 102.40
  A 1.91 1.90 84.2 0 0 158.39 104.40
  L 186.71 95.90
  A 0.36 0.36 0.0 0 0 186.96 95.46
  Q 181.71 74.78 172.83 54.89
  Q 170.76 50.25 165.58 49.13
  Q 155.97 47.05 147.89 44.91
  Q 144.46 44.00 141.24 42.36
  Q 140.61 42.04 140.59 42.75
  Q 140.49 46.63 138.43 49.96
  A 0.57 0.57 0.0 0 0 138.72 50.80
  Q 151.15 55.15 161.41 61.56
  Q 163.43 62.83 164.52 65.16
  Q 167.08 70.60 168.75 76.43
  Q 171.08 84.55 173.14 93.79
  A 0.53 0.53 0.0 0 1 172.72 94.43
  L 172.38 94.49
  Q 171.46 94.66 171.26 93.76
  C 168.88 83.39 166.81 73.63 162.46 65.17
  Q 161.63 63.56 159.98 62.60
  Q 149.54 56.46 137.66 52.29
  Q 137.19 52.13 136.89 52.51
  Q 127.85 63.97 117.22 73.94
  Q 113.73 77.22 109.53 76.76
  C 101.20 75.84 90.67 57.76 87.23 50.52
  A 0.68 0.67 66.8 0 0 86.40 50.18
  Q 77.62 53.39 67.95 56.83
  Q 66.09 57.50 65.28 59.24
  Q 57.67 75.55 53.04 94.79
  Q 52.87 95.47 52.17 95.44
  L 51.82 95.43
  Q 51.40 95.42 51.50 95.01
  Q 55.84 75.85 63.43 59.08
  Q 64.79 56.09 67.92 55.00
  Q 76.68 51.94 85.76 48.77
  Q 86.38 48.55 86.10 47.96
  Q 84.60 44.82 84.45 41.35
  A 0.45 0.45 0.0 0 0 83.83 40.96
  Q 79.17 42.89 74.67 43.99
  Q 65.96 46.11 58.05 48.24
  C 53.75 49.40 51.66 53.12 50.14 56.99
  Q 42.92 75.39 37.55 94.40
  A 0.31 0.30 -71.3 0 0 37.72 94.76
  Q 51.38 100.50 66.30 103.86
  A 1.44 1.43 5.1 0 0 68.05 102.40
  Q 67.47 88.73 65.88 74.49
  A 0.86 0.85 83.1 0 1 66.61 73.55
  L 66.92 73.51
  Q 67.50 73.43 67.55 74.02
  Q 68.80 87.98 69.55 99.53
  Q 69.92 105.24 69.70 112.25
  Q 69.33 123.66 68.74 136.74
  Q 68.28 147.00 68.22 156.74
  Q 68.14 169.69 67.09 181.82
  A 0.54 0.53 5.3 0 0 67.58 182.40
  Q 97.40 185.43 126.42 184.82
  C 136.49 184.61 145.52 183.52 155.01 181.40
  A 0.75 0.74 80.1 0 0 155.58 180.58
  C 154.26 169.26 153.43 157.82 153.41 146.46
  Q 153.39 130.65 153.62 115.06
  Q 153.88 97.47 157.92 75.03
  A 0.35 0.35 0.0 0 1 158.41 74.77
  L 158.72 74.91
  Z
  M 36.45 97.98
  Q 36.44 98.16 36.44 98.27
  Q 36.31 100.31 38.16 101.20
  C 46.02 104.95 54.48 108.33 62.86 109.69
  A 1.92 1.91 21.5 0 0 64.74 108.88
  L 66.19 106.71
  Q 66.81 105.79 65.73 105.55
  Q 52.07 102.53 38.44 96.75
  Q 36.58 95.96 36.45 97.98
  Z
  M 187.71 97.33
  L 158.28 106.15
  A 0.21 0.21 0.0 0 0 158.14 106.42
  L 158.53 107.73
  A 7.44 4.10 -16.7 0 0 166.84 109.52
  L 182.41 104.84
  A 7.44 4.10 -16.7 0 0 188.36 98.78
  L 187.97 97.47
  A 0.21 0.21 0.0 0 0 187.71 97.33
  Z
  M 155.98 186.13
  L 155.98 184.66
  Q 155.99 183.02 154.38 183.33
  Q 135.95 186.90 116.81 186.70
  Q 92.99 186.45 68.11 183.97
  Q 66.37 183.80 66.72 185.52
  Q 66.80 185.90 66.85 186.29
  Q 67.07 188.09 68.82 188.57
  Q 72.23 189.51 75.51 189.79
  Q 112.60 192.93 145.80 189.72
  Q 150.07 189.30 154.36 188.21
  A 2.16 2.15 83.1 0 0 155.98 186.13
  Z"
/>
<path fill="#000000" d="
  M 134.38 48.38
  C 129.92 56.47 122.51 64.06 115.55 70.35
  C 110.39 75.01 106.34 71.33 102.82 67.15
  Q 93.30 55.85 88.94 45.22
  C 87.14 40.83 89.40 36.84 94.09 36.52
  Q 112.67 35.27 129.21 37.15
  C 135.44 37.86 137.50 42.72 134.38 48.38
  Z
  M 90.18 44.00
  C 92.78 51.47 98.24 59.17 103.56 65.59
  C 105.45 67.88 109.74 72.57 112.93 70.18
  Q 123.95 61.94 132.06 48.95
  C 133.93 45.97 135.40 41.54 131.57 39.61
  C 129.41 38.51 127.49 38.61 125.15 38.42
  Q 110.39 37.23 95.63 38.03
  Q 92.75 38.19 91.43 39.33
  Q 89.22 41.25 90.18 44.00
  Z"
/>
<path fill="#000000" d="
  M 152.67 86.17
  A 0.14 0.14 0.0 0 1 152.80 86.32
  L 150.56 117.57
  A 0.46 0.21 4.1 0 1 150.09 117.75
  L 150.07 117.75
  A 0.46 0.21 4.1 0 1 149.62 117.51
  L 151.86 86.26
  A 0.14 0.14 0.0 0 1 152.01 86.13
  L 152.67 86.17
  Z"
/>
<path fill="#000000" d="
  M 150.28 126.30
  Q 150.28 126.68 149.90 126.69
  L 149.64 126.69
  Q 149.54 126.69 149.54 126.59
  L 149.50 122.09
  Q 149.50 121.80 149.79 121.81
  L 150.12 121.82
  Q 150.25 121.82 150.25 121.95
  L 150.28 126.30
  Z"
/>
<rect fill="#000000" x="-0.40" y="-13.98" transform="translate(71.70,145.82) rotate(1.5)" width="0.80" height="27.96" rx="0.27"/>
<ellipse fill="#000000" cx="0.00" cy="0.00" transform="translate(70.89,165.56) rotate(94.6)" rx="2.36" ry="0.43"/>
</svg>
