<svg id="Capa_1" data-name="Capa 1" xmlns="http://www.w3.org/2000/svg" viewBox="0 0 40 40"><defs><style>.cls-1,.cls-3{fill:none;stroke-linecap:round;}.cls-1{stroke:#393939;stroke-linejoin:round;}.cls-2{fill:#a72c2c;}.cls-3{stroke:#a72c2c;stroke-miterlimit:10;}</style></defs><title>08-moto-equipacion-carretera-guantes</title><path class="cls-1" d="M31.9,36.75a2.49,2.49,0,0,0,1.62.18,1.4,1.4,0,0,0,1-1.76,34.57,34.57,0,0,1-1-4.54,19.84,19.84,0,0,0-1.43-5.56"/><path class="cls-1" d="M34.56,35.81s.64.29.57-1.08.35-5.15.2-6.28a35.68,35.68,0,0,0-1-3.87"/><path class="cls-1" d="M23.09,4.13l-.26-.52c-.41-.79-1.42-.81-2.73-.12A15.6,15.6,0,0,0,15,8c-1,1.52.12,2.2.71,2.66a18.61,18.61,0,0,1,3.44,3.71,8.2,8.2,0,0,1,1.16,2.48,69,69,0,0,0-1.38,7.58c-.22,2.88.21,7.63,1.48,7.65s1.36-1.45,1.66-3,.52-3.28.91-3.47,2,1.2,2.95,2.67,2.74,5.78,3.43,6.91S31,37.36,31.9,36.75s.56-2.37.33-3-3-8.37-3-8.37"/><path class="cls-1" d="M35.23,32.13a4.62,4.62,0,0,0,.9-3.09c-.11-1.94,0-3.32-.77-5.21a11.69,11.69,0,0,0-2.88-4.5c-1.79-1.91-4.37-6.29-5.23-7.65,0,0-1.17-2.1-2.4-4.33"/><path class="cls-1" d="M17.12,14.71c-.45.49-2.5,2.68-2.91,3a15,15,0,0,1-3.47,1.79,12.15,12.15,0,0,0-5.11,4C4.1,25.7,4,25.88,4.23,26.94s1.7.23,2.11-.09,3.39-2.2,3.52-2.27-3.43,6.54-4,8.05-1,2.61-.28,3.72,1.94.53,2.56-.68"/><path class="cls-1" d="M19,33.34a6.65,6.65,0,0,1-1.18,2.17c-.65.59-2.33.13-2.5-.67s1.81-4.18,1.81-4.18"/><path class="cls-1" d="M15.35,34.84a1.72,1.72,0,0,1-1.64,1.41s-2.22.12-1.85-1.62a19.68,19.68,0,0,1,1.83-4.31"/><path class="cls-1" d="M11.82,35.19s-.07,1.06-1,1.25S8,36.75,8.22,35.19s2.95-6.09,2.95-6.09"/><path class="cls-1" d="M29.32,18.68s-4.14,1.09-4.82,1.88a2.19,2.19,0,0,0,1.07,3,2.22,2.22,0,0,0,2.11-.52c.54-.36.89.2,1.64.1s.64-.77,1.17-.85,1.26.22,1.78,0"/><path class="cls-1" d="M18,18s-1.77-.68-2.92-1"/><path class="cls-1" d="M13.58,24.53s2.64-1.3,2.6-3.31a6.7,6.7,0,0,0-.35-2.16"/><path class="cls-1" d="M27.51,12.43a19.11,19.11,0,0,0-3.35,1"/><path class="cls-2" d="M23.85,5.15a.47.47,0,0,1,.47.21.51.51,0,0,1,.07.38.47.47,0,0,1-.2.31h0a.49.49,0,1,1-.55-.82A.5.5,0,0,1,23.85,5.15Z"/><line class="cls-3" x1="21.48" y1="6.77" x2="20.08" y2="7.7"/><line class="cls-3" x1="22.59" y1="8.36" x2="21.18" y2="9.29"/></svg>