<?xml version="1.0" encoding="UTF-8" standalone="no"?>
<!DOCTYPE svg PUBLIC "-//W3C//DTD SVG 1.1//EN" "http://www.w3.org/Graphics/SVG/1.1/DTD/svg11.dtd">
<svg xmlns="http://www.w3.org/2000/svg" version="1.1" viewBox="0.00 0.00 503.00 470.00">
<path fill="#585858" d="
  M 136.67 105.46
  Q 141.40 100.70 146.27 95.81
  Q 146.52 95.56 146.88 95.54
  Q 147.36 95.52 147.72 95.19
  Q 155.85 87.84 163.99 83.48
  C 165.21 82.82 166.02 82.01 166.98 81.54
  Q 171.41 79.39 176.06 77.05
  Q 178.34 75.90 180.91 74.85
  Q 191.28 70.60 200.87 68.19
  Q 241.35 58.01 283.50 66.24
  Q 303.35 70.11 321.17 78.28
  Q 331.02 82.79 341.86 88.70
  Q 350.19 93.25 361.52 101.72
  Q 363.06 102.87 365.09 105.13
  Q 365.37 105.45 365.78 105.51
  Q 365.98 105.54 366.17 105.55
  Q 366.50 105.56 366.73 105.80
  Q 375.48 114.63 384.10 123.19
  Q 384.35 123.44 384.43 123.79
  Q 384.48 124.00 384.54 124.21
  Q 384.61 124.43 384.78 124.62
  Q 392.51 133.63 394.84 139.49
  Q 402.99 159.97 410.96 179.73
  Q 415.06 189.92 418.08 198.45
  C 423.17 212.87 427.28 227.01 428.72 241.99
  Q 430.65 262.15 428.64 280.13
  Q 427.59 289.47 422.63 298.77
  Q 422.50 299.00 422.49 299.27
  Q 422.48 299.44 422.48 299.61
  Q 422.49 299.77 422.41 299.93
  Q 409.31 328.19 388.88 351.35
  Q 388.55 351.72 388.45 352.19
  Q 388.37 352.53 388.13 352.77
  Q 379.70 361.17 371.80 369.13
  Q 371.45 369.49 370.95 369.48
  Q 370.80 369.48 370.65 369.50
  Q 370.28 369.56 370.04 369.84
  Q 367.41 372.88 364.28 375.36
  C 344.87 390.72 323.38 401.98 299.00 405.96
  Q 280.02 409.06 257.38 409.47
  Q 219.15 410.16 184.83 398.06
  Q 160.31 389.41 139.50 373.23
  Q 133.64 368.67 128.37 363.37
  Q 123.00 357.97 118.29 352.86
  Q 113.16 347.31 108.00 339.39
  Q 102.66 331.17 97.44 323.45
  C 87.97 309.45 81.53 293.39 80.15 277.14
  Q 78.69 259.88 80.24 241.10
  Q 80.88 233.29 82.44 225.29
  C 83.82 218.20 85.12 211.17 86.86 204.05
  Q 91.43 185.37 96.68 164.25
  Q 99.31 153.70 104.30 145.86
  Q 112.72 132.65 120.47 121.97
  Q 122.01 119.84 124.20 117.95
  Q 124.64 117.56 124.58 116.98
  A 0.95 0.95 0.0 0 1 124.86 116.18
  Q 130.11 111.11 135.18 105.85
  Q 135.43 105.59 135.79 105.57
  Q 135.95 105.56 136.11 105.60
  A 0.56 0.55 -58.6 0 0 136.67 105.46
  Z
  M 342.92 129.80
  Q 343.46 130.75 344.40 131.47
  Q 344.99 131.92 344.46 132.44
  L 339.68 137.20
  Q 338.43 138.46 340.05 139.18
  Q 341.62 139.87 343.19 140.56
  A 2.62 2.62 0.0 0 0 346.11 140.01
  L 348.54 137.56
  Q 348.99 137.11 349.44 137.55
  L 351.19 139.25
  Q 351.52 139.57 351.52 140.04
  Q 351.52 141.09 351.26 142.07
  Q 351.10 142.66 351.71 142.64
  L 355.21 142.51
  A 0.78 0.78 0.0 0 1 355.85 142.82
  Q 356.93 144.27 358.30 145.20
  Q 358.90 145.62 358.19 145.81
  Q 357.17 146.10 357.39 147.08
  A 0.86 0.84 -26.7 0 1 357.10 147.93
  L 355.59 149.18
  Q 355.19 149.51 355.54 149.90
  Q 356.23 150.67 357.15 150.60
  Q 357.53 150.57 357.80 150.84
  L 360.22 153.36
  Q 360.43 153.59 360.74 153.60
  Q 360.93 153.60 361.11 153.56
  A 0.69 0.67 -27.0 0 1 361.79 153.77
  Q 363.48 155.75 365.52 157.37
  Q 365.69 157.51 365.92 157.53
  Q 366.45 157.56 366.82 157.93
  L 377.45 168.57
  Q 377.90 169.02 377.45 169.47
  L 375.33 171.55
  Q 374.94 171.94 375.30 172.36
  Q 376.66 173.98 378.44 174.69
  Q 378.93 174.88 379.24 175.30
  Q 381.65 178.53 384.23 182.05
  Q 386.17 184.70 388.28 185.69
  Q 390.40 186.69 392.14 188.06
  Q 392.66 188.47 392.17 188.93
  L 389.82 191.12
  Q 389.46 191.46 388.96 191.45
  L 383.75 191.37
  Q 383.37 191.36 383.38 191.74
  L 383.44 195.92
  Q 383.44 196.36 383.68 196.73
  Q 384.52 198.02 385.18 199.55
  Q 385.75 200.88 386.93 202.05
  Q 389.46 204.56 391.87 206.97
  Q 392.25 207.35 392.77 207.47
  Q 394.07 207.78 394.86 209.01
  Q 395.23 209.58 395.91 209.51
  Q 396.65 209.43 397.01 210.10
  Q 397.21 210.47 397.61 210.57
  Q 397.75 210.60 397.90 210.57
  Q 398.45 210.46 398.84 210.88
  L 400.18 212.32
  A 1.28 1.25 -21.7 0 0 401.16 212.73
  Q 401.79 212.72 402.20 213.28
  Q 402.99 214.39 402.80 213.04
  Q 402.71 212.44 402.13 212.16
  A 1.01 1.00 13.4 0 1 401.57 211.26
  L 401.57 208.84
  A 1.07 1.05 19.0 0 0 401.15 208.00
  L 400.91 207.82
  Q 400.45 207.48 400.55 206.91
  Q 400.80 205.47 400.21 204.22
  Q 399.75 203.26 399.45 202.13
  Q 393.79 181.17 384.06 161.91
  Q 383.70 161.19 383.55 160.47
  C 383.31 159.22 382.37 158.41 381.82 157.29
  Q 378.48 150.53 374.53 144.04
  Q 373.72 142.70 372.74 141.75
  Q 371.57 140.61 370.92 139.47
  Q 369.95 137.77 368.46 136.31
  Q 366.69 134.56 364.92 132.88
  Q 364.56 132.54 364.63 132.05
  Q 364.71 131.54 364.31 131.15
  Q 358.79 125.80 353.35 120.13
  Q 349.38 115.99 342.23 110.80
  Q 336.91 106.94 330.37 103.99
  Q 312.09 95.75 296.49 89.53
  C 276.16 81.43 255.14 77.82 233.60 80.31
  Q 221.21 81.74 211.09 87.84
  Q 205.22 91.38 199.38 94.24
  Q 198.99 94.43 198.60 94.53
  Q 198.14 94.64 197.89 95.03
  Q 197.60 95.47 197.08 95.41
  Q 196.39 95.32 196.03 95.91
  Q 195.73 96.42 195.14 96.38
  Q 194.22 96.33 193.77 97.12
  Q 193.48 97.64 192.91 97.46
  Q 191.59 97.06 190.85 98.13
  A 0.82 0.81 -67.4 0 1 190.04 98.47
  Q 189.21 98.33 188.87 99.11
  A 0.54 0.53 17.6 0 1 188.26 99.42
  Q 187.36 99.23 186.91 100.06
  A 0.77 0.76 -67.2 0 1 186.03 100.43
  Q 185.39 100.25 185.09 100.84
  Q 184.78 101.43 184.11 101.40
  Q 183.21 101.35 182.74 102.14
  A 0.84 0.83 -63.3 0 1 181.71 102.48
  Q 180.46 101.95 179.86 103.18
  Q 179.68 103.55 179.29 103.44
  Q 178.32 103.17 177.92 104.09
  Q 177.71 104.54 177.23 104.42
  Q 176.35 104.21 175.93 105.02
  Q 175.67 105.51 175.12 105.41
  Q 174.43 105.29 174.04 105.87
  Q 173.75 106.29 173.25 106.42
  Q 172.30 106.69 171.43 107.17
  Q 163.79 111.43 156.82 115.60
  C 155.46 116.42 154.52 117.57 153.17 118.31
  Q 151.79 119.06 150.74 120.21
  Q 149.61 121.44 148.21 122.28
  Q 146.87 123.09 145.74 124.19
  Q 136.81 132.90 131.42 143.74
  Q 129.39 147.84 124.30 161.29
  Q 122.83 165.19 121.23 168.42
  Q 119.58 171.76 117.82 175.34
  C 117.38 176.24 117.48 176.93 117.05 177.78
  Q 109.02 193.65 104.31 210.80
  Q 103.58 213.46 103.18 216.17
  Q 103.17 216.23 103.23 216.25
  Q 103.27 216.27 103.32 216.26
  Q 103.43 216.24 103.47 216.13
  Q 105.47 210.41 109.23 205.81
  A 0.90 0.89 -56.6 0 1 110.33 205.58
  Q 113.39 207.16 115.43 209.50
  C 117.56 211.93 115.95 219.04 115.25 221.91
  Q 115.05 222.72 114.72 223.47
  Q 114.19 224.68 114.38 226.12
  Q 114.46 226.75 114.91 226.31
  Q 116.84 224.47 117.47 221.78
  Q 118.63 216.85 119.74 212.08
  C 120.97 206.83 123.69 203.84 127.66 200.61
  Q 128.05 200.30 128.45 200.58
  Q 133.22 204.01 132.38 209.93
  C 131.97 212.80 131.61 215.84 130.73 218.54
  Q 130.19 220.23 130.42 222.13
  A 0.74 0.73 80.6 0 0 131.29 222.76
  Q 136.86 221.61 137.28 215.80
  Q 137.69 210.08 137.70 203.72
  C 137.70 202.26 138.50 201.47 138.57 200.06
  A 1.42 1.40 -22.1 0 1 138.97 199.13
  L 140.83 197.21
  Q 141.79 196.22 142.49 197.41
  Q 144.79 201.31 146.66 205.57
  Q 147.02 206.38 147.82 206.78
  A 0.55 0.55 0.0 0 0 148.62 206.29
  L 148.57 203.28
  Q 148.56 202.74 148.87 202.30
  C 149.70 201.07 149.51 199.65 149.90 198.26
  Q 150.47 196.26 150.99 194.36
  Q 152.64 188.36 157.48 183.66
  A 1.40 1.39 -42.1 0 1 159.51 183.76
  Q 160.55 184.97 160.39 186.54
  Q 159.82 191.96 158.60 197.29
  Q 157.98 199.97 159.63 202.62
  Q 159.93 203.10 160.35 202.73
  Q 164.02 199.55 164.39 196.94
  Q 165.64 188.12 166.96 179.26
  Q 167.79 173.72 171.47 170.45
  Q 171.76 170.19 172.02 170.49
  Q 173.59 172.34 173.90 174.43
  C 174.50 178.39 175.21 182.01 177.02 185.39
  Q 177.25 185.82 177.47 185.39
  C 180.08 180.44 179.76 173.22 179.44 167.63
  Q 178.98 159.66 184.16 154.77
  Q 184.53 154.41 184.89 154.78
  Q 187.12 157.05 187.46 160.13
  C 187.65 161.88 188.61 163.01 188.41 164.87
  Q 188.35 165.46 188.78 165.86
  L 189.19 166.24
  Q 189.62 166.64 189.44 167.19
  Q 188.91 168.90 190.97 169.87
  Q 191.65 170.19 191.57 169.44
  L 191.53 169.07
  Q 191.48 168.56 191.85 168.20
  L 194.29 165.85
  A 0.99 0.98 67.9 0 0 194.60 165.11
  L 194.56 163.18
  Q 194.55 162.70 194.83 162.31
  Q 196.55 159.94 194.77 157.61
  Q 194.50 157.25 194.56 156.82
  Q 194.92 154.29 194.13 152.24
  Q 193.55 150.73 193.55 149.06
  Q 193.56 145.98 193.53 142.93
  Q 193.52 142.31 194.08 142.03
  Q 194.73 141.69 194.54 140.94
  Q 194.37 140.31 194.98 140.07
  Q 195.67 139.81 195.57 139.13
  Q 195.50 138.61 195.86 138.24
  L 199.30 134.75
  Q 199.64 134.41 199.88 134.83
  Q 200.36 135.65 201.16 136.14
  A 0.71 0.71 0.0 0 1 201.46 136.98
  Q 201.15 137.82 202.01 138.08
  Q 202.63 138.27 202.46 138.90
  Q 202.22 139.78 203.04 140.18
  Q 203.84 140.57 203.44 141.37
  Q 202.90 142.41 203.90 142.97
  Q 204.49 143.30 204.47 143.97
  L 204.35 148.26
  Q 204.34 148.79 204.71 148.41
  L 212.34 140.77
  Q 212.73 140.37 212.57 139.83
  Q 212.40 139.28 212.97 139.05
  Q 214.09 138.61 213.58 137.51
  Q 213.17 136.62 213.97 136.15
  Q 214.60 135.78 214.59 135.05
  L 214.56 130.17
  Q 214.56 129.61 214.94 129.20
  Q 215.95 128.11 215.53 126.47
  Q 215.32 125.68 215.93 125.14
  Q 216.79 124.38 216.58 123.21
  Q 216.47 122.62 216.90 122.20
  L 220.55 118.55
  Q 221.00 118.11 221.45 118.55
  L 223.04 120.13
  Q 223.45 120.53 223.44 121.09
  L 223.40 134.28
  Q 223.40 134.81 223.92 134.72
  Q 225.99 134.37 228.07 134.67
  Q 228.73 134.76 228.96 134.14
  Q 229.24 133.36 230.04 133.56
  A 1.03 1.00 -54.4 0 0 230.88 133.41
  Q 231.72 132.82 231.56 131.86
  Q 231.45 131.27 232.01 131.07
  Q 232.90 130.75 232.57 129.86
  Q 232.37 129.32 232.91 129.11
  Q 233.96 128.71 233.63 127.61
  Q 233.03 125.67 234.40 124.74
  Q 234.83 124.45 234.67 123.95
  Q 233.95 121.75 235.43 120.67
  Q 235.95 120.30 235.66 119.72
  Q 235.45 119.29 235.49 118.82
  Q 235.53 118.29 236.02 118.08
  Q 236.84 117.73 236.62 116.95
  A 0.63 0.62 -32.1 0 1 236.77 116.33
  L 240.29 112.76
  Q 240.64 112.40 240.90 112.84
  Q 241.34 113.59 242.04 114.07
  Q 242.49 114.39 242.47 114.94
  L 242.36 117.05
  Q 242.33 117.68 242.89 117.98
  Q 243.07 118.07 243.21 118.21
  Q 243.45 118.46 243.45 118.82
  L 243.40 127.04
  Q 243.39 127.60 243.81 127.98
  L 244.56 128.68
  Q 245.10 129.17 245.52 128.57
  Q 246.62 126.97 248.72 127.62
  Q 249.32 127.80 249.77 127.36
  L 253.34 123.77
  Q 253.73 123.39 253.57 122.87
  Q 253.37 122.18 254.17 121.96
  Q 254.95 121.75 254.73 120.97
  L 254.48 120.05
  Q 254.28 119.32 254.98 119.07
  Q 255.84 118.77 255.64 117.97
  Q 255.49 117.39 255.96 117.01
  L 257.35 115.88
  Q 257.59 115.69 257.63 115.39
  Q 257.66 115.21 257.60 115.04
  Q 257.47 114.64 257.77 114.34
  L 261.29 110.76
  Q 261.64 110.41 261.89 110.83
  Q 262.33 111.58 263.00 112.05
  Q 263.43 112.35 263.43 112.88
  L 263.44 118.26
  Q 263.44 118.76 262.97 118.93
  Q 262.73 119.02 262.55 119.20
  Q 262.25 119.49 262.32 119.89
  Q 262.61 121.46 262.28 123.15
  Q 262.19 123.60 262.65 123.60
  L 268.22 123.57
  Q 268.70 123.57 269.00 123.20
  L 270.17 121.78
  Q 270.44 121.45 270.85 121.55
  L 271.14 121.62
  A 0.54 0.54 0.0 0 0 271.66 121.48
  L 273.55 119.59
  Q 273.69 119.45 273.68 119.24
  Q 273.68 119.08 273.61 118.94
  Q 273.46 118.63 273.70 118.38
  L 279.20 112.90
  Q 279.54 112.56 280.03 112.56
  L 283.00 112.56
  Q 283.49 112.56 283.84 112.91
  L 286.88 116.00
  A 2.23 2.22 -40.3 0 1 286.60 119.36
  Q 286.01 119.78 285.50 120.25
  Q 284.62 121.08 285.78 120.76
  Q 286.49 120.56 287.19 120.64
  A 0.81 0.79 -79.3 0 0 288.04 120.05
  Q 288.23 119.36 288.89 119.58
  Q 289.43 119.76 289.82 119.35
  L 292.17 116.85
  Q 292.49 116.51 292.95 116.60
  Q 293.46 116.70 293.84 116.31
  Q 296.06 114.07 298.27 111.77
  Q 298.74 111.27 299.38 111.54
  Q 300.70 112.10 301.18 110.80
  Q 301.47 109.98 301.88 110.75
  Q 302.41 111.76 303.36 112.40
  Q 304.06 112.87 303.46 113.46
  L 300.56 116.31
  Q 300.33 116.53 300.30 116.85
  Q 300.29 116.98 300.34 117.10
  Q 300.66 117.74 300.01 118.04
  Q 298.01 119.01 298.29 121.39
  Q 298.35 121.89 298.78 121.65
  Q 299.52 121.24 299.86 121.96
  Q 300.18 122.63 300.92 122.61
  L 304.06 122.54
  Q 304.59 122.52 304.87 122.97
  L 305.04 123.23
  Q 305.29 123.62 305.75 123.61
  L 308.06 123.53
  Q 308.59 123.52 308.87 123.97
  L 309.03 124.22
  Q 309.37 124.74 309.98 124.63
  Q 310.99 124.46 311.93 124.65
  Q 312.75 124.82 313.03 124.03
  Q 313.25 123.41 313.88 123.59
  Q 314.44 123.74 314.84 123.33
  L 318.15 119.88
  Q 318.73 119.28 318.94 120.08
  Q 319.13 120.80 319.86 120.59
  Q 320.42 120.43 320.82 120.85
  L 322.46 122.59
  Q 322.90 123.06 322.44 123.49
  L 320.61 125.23
  A 0.84 0.84 0.0 0 0 320.38 126.10
  Q 320.65 126.99 319.69 127.13
  Q 319.07 127.22 319.43 127.73
  Q 320.17 128.79 321.31 128.56
  Q 321.75 128.47 321.89 128.91
  Q 322.21 129.97 323.23 129.53
  A 0.39 0.39 0.0 0 1 323.74 129.71
  Q 324.36 130.93 325.71 130.54
  A 1.02 1.01 60.8 0 1 326.72 130.83
  L 326.95 131.07
  Q 327.34 131.48 327.90 131.51
  Q 331.70 131.70 335.82 131.50
  C 337.00 131.45 337.29 130.50 338.62 130.55
  Q 339.99 130.60 341.33 130.57
  Q 341.80 130.56 342.01 130.14
  Q 342.08 130.00 342.13 129.86
  Q 342.46 129.01 342.92 129.80
  Z
  M 283.7800 120.5254
  A 0.78 0.42 0.4 0 0 283.0029 120.1000
  A 0.78 0.42 0.4 0 0 282.2200 120.5146
  A 0.78 0.42 0.4 0 0 282.9971 120.9400
  A 0.78 0.42 0.4 0 0 283.7800 120.5254
  Z
  M 193.82 337.68
  Q 194.71 339.05 196.10 340.09
  Q 196.60 340.46 196.47 341.06
  Q 196.32 341.78 196.99 342.07
  Q 197.60 342.33 197.47 342.98
  Q 197.31 343.74 197.96 344.07
  Q 198.51 344.36 198.47 344.98
  L 198.35 347.15
  A 1.25 1.24 -78.7 0 0 199.17 348.39
  Q 200.79 348.98 200.95 348.21
  Q 201.14 347.33 202.01 347.57
  Q 202.84 347.79 203.11 346.96
  A 0.74 0.73 -74.2 0 1 203.98 346.47
  L 204.97 346.70
  A 0.85 0.84 -72.5 0 0 205.95 346.18
  Q 206.27 345.35 207.20 345.60
  A 1.11 1.11 0.0 0 0 208.59 344.52
  L 208.57 339.76
  Q 208.56 339.31 208.19 339.06
  L 207.96 338.90
  A 0.91 0.90 17.5 0 1 207.57 338.16
  L 207.57 333.97
  Q 207.57 333.47 207.93 333.11
  Q 208.74 332.32 208.57 331.19
  Q 208.48 330.61 208.90 330.20
  L 212.58 326.53
  Q 213.02 326.09 213.45 326.54
  C 214.52 327.63 215.89 328.67 216.51 330.05
  Q 217.50 332.27 218.76 334.51
  Q 219.59 336.00 219.48 337.75
  Q 219.37 339.49 219.46 341.23
  A 0.88 0.88 0.0 0 1 218.90 342.09
  Q 218.64 342.20 218.43 342.41
  Q 217.92 342.91 218.62 342.80
  Q 221.55 342.35 225.13 342.65
  A 1.25 1.25 0.0 0 0 226.45 341.67
  Q 227.07 338.90 226.16 336.30
  Q 225.53 334.52 225.56 332.81
  Q 225.62 329.51 225.52 326.03
  Q 225.51 325.44 225.99 325.10
  Q 226.54 324.72 226.52 324.08
  A 1.20 1.19 -23.7 0 1 226.87 323.19
  L 229.57 320.56
  Q 230.01 320.12 230.45 320.56
  L 236.10 326.20
  Q 236.51 326.60 236.45 327.17
  Q 236.38 327.78 236.94 328.05
  Q 237.68 328.39 237.48 329.19
  Q 237.35 329.72 237.82 329.96
  Q 238.47 330.29 238.46 331.02
  Q 238.42 335.07 238.42 338.56
  A 3.22 2.87 -6.2 0 1 235.82 341.44
  Q 234.94 341.61 234.36 342.33
  Q 233.87 342.93 234.63 342.80
  Q 237.13 342.36 239.88 342.64
  Q 240.43 342.69 240.82 342.31
  L 242.35 340.78
  Q 242.75 340.38 242.58 339.85
  Q 242.42 339.33 242.93 339.10
  Q 243.61 338.80 243.60 338.05
  L 243.55 333.96
  Q 243.55 333.42 243.99 333.14
  Q 244.28 332.95 244.41 332.66
  Q 244.60 332.26 244.59 331.83
  Q 244.58 327.72 244.53 323.81
  Q 244.52 323.23 245.07 323.02
  Q 245.89 322.71 245.56 321.92
  Q 245.33 321.38 245.87 321.16
  Q 246.63 320.85 246.58 320.09
  Q 246.54 319.53 246.94 319.14
  L 248.57 317.55
  Q 249.01 317.11 249.46 317.56
  L 257.19 325.29
  Q 257.44 325.54 257.46 325.89
  Q 257.47 326.13 257.56 326.36
  Q 257.72 326.73 258.00 327.03
  Q 259.72 328.84 260.46 331.18
  Q 260.61 331.67 260.99 332.01
  Q 261.59 332.55 261.52 333.37
  Q 261.49 333.62 261.66 333.81
  Q 261.78 333.95 261.94 334.01
  Q 262.43 334.22 262.43 334.75
  L 262.44 339.17
  Q 262.44 339.78 261.90 340.06
  L 261.52 340.26
  Q 260.71 340.69 261.63 340.68
  Q 282.67 340.45 294.33 340.67
  Q 297.26 340.73 299.53 339.78
  Q 299.99 339.59 300.48 339.62
  Q 303.30 339.80 306.28 339.10
  Q 310.90 338.02 314.83 336.94
  Q 315.60 336.72 316.41 336.58
  Q 317.20 336.44 317.96 336.09
  C 323.61 333.47 328.99 330.72 333.17 326.08
  Q 334.11 325.04 332.74 324.73
  Q 330.17 324.13 328.68 322.30
  Q 325.63 318.56 323.44 313.11
  C 321.74 308.88 321.68 305.56 325.68 302.46
  A 0.72 0.72 0.0 0 1 326.67 302.56
  C 328.44 304.57 330.16 306.78 331.23 309.21
  C 333.16 313.61 335.95 316.00 338.95 319.32
  Q 339.19 319.59 339.56 319.65
  C 342.37 320.08 346.25 316.14 347.82 314.17
  Q 348.36 313.50 347.50 313.47
  L 345.96 313.41
  A 0.85 0.79 55.1 0 1 345.63 313.34
  Q 338.67 310.35 334.81 303.28
  Q 333.07 300.08 331.49 296.93
  A 1.35 1.33 54.2 0 1 331.73 295.38
  L 334.53 292.55
  Q 335.01 292.06 335.46 292.57
  Q 336.14 293.34 337.15 293.60
  Q 337.65 293.73 338.01 294.09
  Q 343.82 299.94 349.66 305.83
  C 350.75 306.93 352.62 306.87 353.86 306.34
  A 0.93 0.93 0.0 0 0 354.43 305.48
  Q 354.42 304.46 355.25 303.88
  Q 355.47 303.72 355.52 303.45
  L 355.63 302.82
  Q 355.71 302.36 356.04 302.04
  L 358.35 299.79
  Q 358.76 299.39 358.61 298.84
  Q 358.42 298.18 359.14 298.01
  Q 359.80 297.86 359.50 297.25
  Q 359.21 296.67 358.44 296.36
  A 0.35 0.35 0.0 0 0 357.96 296.69
  Q 357.95 296.84 357.93 296.99
  Q 357.74 297.96 357.21 297.13
  L 357.05 296.88
  Q 356.74 296.39 356.16 296.40
  L 349.79 296.45
  Q 349.33 296.46 349.08 296.06
  Q 348.74 295.51 348.10 295.51
  Q 347.58 295.50 347.21 295.13
  L 344.88 292.79
  Q 344.58 292.49 344.62 292.06
  Q 344.65 291.64 344.34 291.31
  Q 344.02 290.96 343.78 290.53
  Q 342.08 287.53 340.01 284.82
  C 337.88 282.04 341.51 279.80 342.91 277.99
  Q 343.25 277.56 343.72 277.83
  Q 351.29 282.16 359.32 284.24
  C 361.33 284.76 363.45 284.67 365.49 284.64
  Q 366.08 284.64 366.39 284.14
  Q 369.36 279.34 371.10 274.19
  C 371.64 272.58 371.48 270.88 372.36 269.44
  A 1.50 1.49 -31.6 0 0 372.58 268.53
  Q 372.49 267.38 372.92 266.37
  C 373.89 264.10 373.35 261.93 374.13 259.70
  Q 374.78 257.84 374.63 255.87
  A 0.49 0.49 0.0 0 0 374.12 255.42
  Q 369.37 255.64 365.30 255.43
  Q 361.66 255.26 358.87 251.79
  A 1.10 1.10 0.0 0 1 358.67 250.81
  Q 360.16 245.59 365.72 246.54
  Q 369.81 247.25 373.43 247.65
  C 375.17 247.84 376.32 249.01 378.21 248.66
  Q 378.69 248.58 378.67 248.09
  L 378.57 244.14
  Q 378.56 243.64 378.87 243.25
  Q 380.01 241.84 379.48 239.37
  A 1.28 1.20 76.8 0 1 380.33 237.89
  Q 380.54 237.83 380.67 237.62
  Q 380.94 237.15 380.40 237.22
  Q 378.09 237.52 375.52 237.41
  Q 373.65 237.33 371.49 238.05
  Q 369.48 238.72 367.60 239.60
  Q 366.58 240.07 365.98 240.97
  Q 365.67 241.44 365.23 241.08
  Q 360.18 237.01 358.63 231.61
  Q 358.29 230.45 359.14 229.59
  Q 361.36 227.33 364.44 227.00
  Q 371.18 226.28 377.99 226.62
  A 1.52 1.51 -88.6 0 0 379.58 225.10
  L 379.57 219.89
  A 1.05 1.04 -72.8 0 0 379.12 219.03
  Q 378.08 218.30 378.75 217.12
  Q 378.90 216.86 378.83 216.57
  Q 378.81 216.51 378.78 216.46
  Q 378.64 216.22 378.36 216.54
  Q 378.14 216.77 377.93 216.99
  Q 377.59 217.34 377.10 217.39
  Q 376.11 217.49 375.19 217.83
  Q 369.68 219.86 363.75 220.41
  Q 358.54 220.89 355.21 217.20
  Q 353.62 215.43 354.41 213.43
  C 355.66 210.27 359.03 208.49 362.32 207.88
  Q 368.73 206.69 374.98 206.47
  Q 375.63 206.45 375.62 205.79
  L 375.52 200.03
  Q 375.51 199.46 375.10 199.05
  C 374.59 198.56 374.59 198.05 374.64 197.40
  Q 374.75 195.96 373.33 195.26
  A 0.63 0.63 0.0 0 0 372.56 195.42
  C 371.50 196.69 370.23 196.40 368.81 196.89
  Q 365.31 198.08 361.46 199.25
  C 358.64 200.10 356.91 202.42 355.06 204.59
  Q 353.59 206.32 351.92 204.91
  Q 348.64 202.13 347.97 197.66
  A 1.58 1.54 55.5 0 1 348.13 196.72
  Q 350.13 192.79 354.30 191.08
  Q 358.26 189.46 363.31 188.39
  Q 363.96 188.25 363.62 187.67
  Q 363.03 186.68 361.98 186.01
  Q 361.39 185.65 361.91 185.19
  C 364.53 182.85 366.55 179.87 362.34 177.39
  Q 361.85 177.10 361.46 177.52
  Q 360.40 178.65 359.04 179.43
  Q 355.87 181.24 353.16 183.76
  C 351.55 185.27 349.67 186.05 348.20 187.70
  A 2.02 1.98 -75.8 0 1 347.20 188.31
  Q 346.19 188.58 345.52 189.34
  A 0.74 0.74 0.0 0 1 344.44 189.38
  L 341.88 186.81
  Q 341.49 186.42 341.94 186.09
  Q 342.85 185.42 342.55 184.19
  Q 342.38 183.55 342.90 183.13
  Q 343.80 182.38 343.57 181.20
  Q 343.46 180.62 343.88 180.21
  L 348.70 175.42
  Q 349.15 174.97 348.68 174.53
  L 346.89 172.85
  Q 346.55 172.52 346.55 172.06
  L 346.57 167.82
  Q 346.57 167.22 347.09 166.93
  L 347.51 166.70
  Q 348.16 166.34 347.49 166.03
  Q 347.15 165.87 346.91 166.09
  Q 343.80 168.90 340.58 172.46
  Q 339.54 173.61 337.98 173.57
  Q 335.88 173.53 334.52 171.34
  Q 334.06 170.59 334.86 170.25
  Q 335.84 169.84 335.56 168.87
  Q 335.38 168.24 336.00 168.06
  Q 336.87 167.79 336.59 166.95
  Q 336.42 166.45 336.84 166.11
  L 338.36 164.87
  Q 338.80 164.51 338.60 163.98
  Q 338.31 163.18 339.18 162.98
  A 0.63 0.62 70.7 0 0 339.60 162.09
  Q 339.23 161.32 340.06 161.06
  Q 340.70 160.86 340.60 160.19
  Q 340.44 159.14 341.50 158.50
  Q 342.68 157.78 341.37 157.37
  Q 340.96 157.24 340.54 157.41
  Q 339.45 157.84 338.95 156.79
  Q 338.67 156.21 338.04 156.40
  Q 337.53 156.55 337.18 156.16
  Q 336.30 155.21 335.43 154.28
  Q 334.68 153.47 333.78 153.32
  Q 332.29 153.06 331.74 154.23
  Q 331.49 154.77 331.00 154.43
  L 330.75 154.27
  Q 330.08 153.81 330.20 154.61
  Q 330.24 154.88 330.35 155.08
  Q 330.55 155.50 330.21 155.81
  Q 328.82 157.06 327.53 158.27
  Q 327.19 158.60 327.31 159.05
  Q 327.42 159.50 327.09 159.83
  L 321.44 165.44
  Q 321.00 165.89 320.55 165.45
  L 318.96 163.89
  Q 318.55 163.49 318.61 162.91
  Q 318.69 162.17 317.98 161.79
  Q 316.53 161.02 317.95 160.20
  Q 319.06 159.55 318.57 158.35
  Q 318.22 157.47 319.06 157.04
  Q 319.42 156.86 319.61 156.50
  Q 319.85 156.03 319.63 155.54
  Q 319.12 154.40 320.29 153.90
  Q 320.84 153.66 320.59 153.12
  Q 320.26 152.40 320.94 152.10
  Q 321.63 151.81 321.62 151.07
  L 321.62 149.92
  Q 321.62 149.21 320.98 148.87
  Q 320.68 148.70 320.48 148.41
  Q 320.19 148.00 320.54 147.64
  Q 320.97 147.19 320.87 146.55
  Q 320.77 145.82 320.34 146.43
  L 319.89 147.08
  Q 319.63 147.46 319.16 147.45
  L 316.88 147.38
  Q 316.30 147.37 315.97 147.85
  L 315.70 148.25
  Q 315.32 148.81 314.74 148.47
  Q 313.48 147.74 312.92 149.15
  Q 312.71 149.66 312.19 149.47
  L 311.95 149.38
  Q 311.60 149.25 311.34 149.51
  L 307.79 153.15
  Q 307.38 153.57 307.04 153.09
  Q 306.14 151.82 304.85 150.90
  Q 304.39 150.57 304.59 150.04
  Q 304.89 149.26 304.08 148.99
  Q 303.54 148.82 303.55 148.26
  L 303.59 141.76
  A 1.33 1.32 0.2 0 0 302.26 140.43
  L 296.91 140.41
  Q 296.45 140.41 296.12 140.74
  L 294.63 142.24
  Q 294.25 142.63 294.40 143.15
  Q 294.58 143.76 293.95 144.01
  Q 293.12 144.35 293.33 145.22
  L 293.50 145.91
  Q 293.65 146.50 293.16 146.86
  Q 291.83 147.83 290.85 149.24
  Q 290.51 149.74 290.16 149.24
  Q 289.18 147.85 287.82 146.87
  Q 287.39 146.57 287.58 146.08
  Q 287.92 145.24 287.03 144.98
  A 0.74 0.73 -80.8 0 1 286.51 144.25
  L 286.63 141.88
  Q 286.66 141.30 286.14 141.02
  L 285.81 140.84
  A 0.63 0.62 14.6 0 1 285.48 140.29
  Q 285.46 139.03 285.74 137.96
  Q 285.89 137.37 285.28 137.38
  L 277.99 137.46
  Q 277.53 137.47 277.23 137.11
  Q 276.21 135.86 274.42 136.51
  Q 273.39 136.89 273.40 137.98
  L 273.44 143.99
  Q 273.45 144.48 273.10 144.83
  L 270.44 147.44
  Q 270.00 147.88 269.55 147.44
  L 264.88 142.80
  Q 264.52 142.45 264.62 141.96
  Q 264.76 141.19 263.96 140.95
  Q 263.40 140.78 263.55 140.22
  Q 263.81 139.18 262.79 138.63
  C 261.84 138.12 261.05 138.61 260.03 138.33
  Q 259.34 138.15 259.04 138.79
  L 258.93 139.02
  Q 258.68 139.52 258.12 139.49
  L 255.79 139.36
  A 0.84 0.84 0.0 0 0 254.95 139.90
  Q 254.62 140.81 253.73 140.34
  Q 252.88 139.89 253.40 140.70
  Q 253.96 141.58 254.91 141.54
  Q 255.40 141.51 255.75 141.86
  L 259.20 145.27
  Q 259.44 145.50 259.20 145.74
  L 255.75 149.17
  Q 255.44 149.48 255.00 149.40
  Q 254.08 149.22 253.72 150.21
  A 0.71 0.71 0.0 0 1 252.54 150.46
  L 249.81 147.66
  Q 249.47 147.30 248.98 147.43
  Q 248.24 147.64 247.97 146.88
  Q 247.71 146.15 246.98 146.41
  Q 246.32 146.65 246.04 146.04
  Q 245.75 145.42 245.06 145.42
  L 237.95 145.42
  Q 237.14 145.42 236.87 146.17
  Q 236.71 146.64 236.21 146.46
  Q 235.42 146.17 234.95 146.87
  Q 234.43 147.64 233.67 148.10
  Q 233.16 148.41 233.54 148.88
  Q 234.26 149.78 235.29 149.55
  Q 235.78 149.44 235.89 149.92
  Q 236.09 150.80 236.90 150.60
  Q 237.42 150.47 237.79 150.85
  L 241.47 154.60
  Q 241.91 155.04 241.39 155.39
  Q 240.55 155.96 240.40 156.90
  A 3.06 3.03 0.2 0 1 237.83 159.42
  Q 236.90 159.56 236.53 160.43
  A 0.53 0.53 0.0 0 1 235.65 160.57
  L 234.84 159.64
  Q 234.47 159.20 233.94 159.44
  Q 233.35 159.71 233.13 159.08
  A 1.01 1.01 0.0 0 0 232.07 158.40
  Q 230.96 158.51 230.43 157.32
  Q 229.91 156.19 228.78 156.44
  Q 228.21 156.57 228.04 155.98
  A 0.80 0.80 0.0 0 0 227.26 155.40
  L 223.89 155.43
  A 1.51 1.51 0.0 0 0 222.40 156.93
  L 222.37 159.30
  Q 222.36 160.10 223.06 159.71
  Q 224.44 158.94 225.12 160.26
  Q 225.35 160.72 225.87 160.72
  Q 226.25 160.72 226.59 160.56
  Q 227.01 160.36 227.44 160.54
  Q 227.81 160.69 227.93 161.07
  Q 228.06 161.47 228.46 161.61
  Q 228.68 161.69 228.90 161.63
  Q 229.42 161.48 229.80 161.87
  L 233.44 165.56
  Q 233.88 166.01 233.44 166.45
  L 230.97 168.95
  A 2.18 2.17 54.7 0 1 227.46 168.35
  Q 226.91 167.21 225.76 167.41
  Q 225.14 167.52 225.00 166.90
  Q 224.96 166.73 224.83 166.62
  Q 224.63 166.43 224.34 166.43
  L 217.70 166.40
  Q 217.24 166.40 217.03 166.81
  L 216.83 167.21
  Q 216.62 167.65 216.17 167.47
  Q 215.14 167.06 214.87 168.15
  Q 214.78 168.54 214.38 168.51
  Q 214.23 168.49 214.09 168.43
  Q 213.68 168.22 213.35 168.54
  L 210.64 171.23
  Q 210.23 171.64 210.39 172.21
  Q 210.60 172.93 209.88 173.09
  Q 209.12 173.26 209.67 173.81
  L 212.37 176.50
  A 0.59 0.58 -33.0 0 0 213.00 176.63
  L 213.24 176.53
  Q 213.43 176.45 213.57 176.60
  L 215.43 178.55
  Q 215.84 178.98 215.44 179.42
  L 213.71 181.29
  A 0.58 0.57 32.2 0 1 213.06 181.43
  Q 212.28 181.10 211.98 181.94
  Q 211.79 182.46 211.23 182.45
  L 202.92 182.40
  Q 202.50 182.40 202.20 182.69
  L 200.65 184.20
  Q 200.22 184.61 200.37 185.18
  Q 200.46 185.51 200.43 185.85
  Q 200.37 186.51 199.78 186.20
  Q 199.44 186.01 199.26 186.48
  Q 199.05 187.01 199.58 186.81
  L 200.14 186.61
  Q 200.51 186.47 200.67 186.83
  Q 201.01 187.61 201.85 187.61
  Q 203.50 187.60 205.13 187.50
  Q 205.75 187.47 205.96 188.05
  Q 206.26 188.90 207.09 188.56
  Q 207.59 188.35 207.87 188.82
  Q 208.36 189.64 209.15 190.12
  A 0.75 0.73 28.5 0 1 209.44 191.06
  Q 209.15 191.69 209.78 191.94
  Q 210.52 192.23 210.55 193.02
  Q 210.64 195.00 208.57 196.28
  Q 208.01 196.63 207.41 196.38
  Q 206.47 195.99 206.02 196.87
  Q 205.73 197.42 205.11 197.43
  L 202.95 197.45
  Q 202.30 197.45 202.01 196.88
  Q 201.93 196.70 201.77 196.58
  Q 201.50 196.37 201.16 196.38
  L 197.78 196.48
  A 0.74 0.73 79.2 0 1 197.06 195.99
  Q 196.92 195.60 196.51 195.42
  A 0.77 0.76 -34.9 0 0 196.11 195.35
  Q 193.04 195.55 189.92 195.35
  Q 189.37 195.31 189.04 195.76
  Q 188.50 196.52 187.73 197.07
  Q 187.20 197.45 187.37 198.09
  Q 187.60 198.92 186.75 199.16
  Q 185.94 199.39 186.59 199.94
  C 187.73 200.90 188.49 200.67 189.89 200.48
  Q 190.67 200.37 190.97 201.09
  Q 191.26 201.80 191.94 201.61
  Q 192.43 201.47 192.78 201.84
  L 195.44 204.56
  Q 195.86 204.99 195.44 205.43
  L 192.82 208.14
  Q 192.41 208.56 191.86 208.38
  Q 191.29 208.19 191.03 208.80
  Q 190.74 209.44 190.04 209.44
  L 177.71 209.41
  Q 177.27 209.41 177.02 209.78
  L 176.72 210.23
  Q 176.39 210.72 175.84 210.50
  Q 174.29 209.88 173.41 211.49
  Q 173.16 211.95 173.37 212.43
  Q 173.95 213.80 175.32 213.53
  A 0.48 0.48 0.0 0 1 175.88 213.90
  Q 176.09 214.78 176.92 214.60
  Q 177.42 214.48 177.79 214.85
  L 181.44 218.56
  Q 181.87 219.00 181.44 219.44
  L 178.85 222.08
  Q 178.51 222.43 178.02 222.43
  L 168.75 222.44
  Q 168.27 222.44 168.09 222.00
  Q 167.90 221.52 167.32 221.37
  A 1.12 0.94 -36.0 0 0 167.03 221.35
  Q 164.03 221.54 160.91 221.36
  Q 160.52 221.33 160.18 221.53
  Q 160.06 221.60 160.05 221.73
  Q 159.95 222.58 159.13 222.41
  Q 158.20 222.22 157.84 223.10
  Q 157.59 223.69 157.02 223.41
  L 156.68 223.25
  Q 155.91 222.88 156.35 223.62
  Q 156.95 224.62 157.99 224.53
  Q 158.76 224.46 159.12 225.14
  Q 159.91 226.62 161.26 226.65
  Q 162.01 226.66 162.32 227.34
  Q 162.98 228.75 164.35 228.62
  Q 164.82 228.58 165.04 228.99
  Q 165.44 229.78 166.23 230.17
  Q 166.82 230.46 166.27 230.83
  Q 164.98 231.68 164.07 232.95
  Q 163.70 233.47 163.05 233.47
  Q 157.85 233.43 152.27 233.37
  C 151.25 233.36 151.01 232.75 150.05 232.69
  Q 145.38 232.38 139.81 232.42
  A 0.91 0.89 15.0 0 0 139.03 232.86
  L 138.89 233.10
  A 0.74 0.73 20.6 0 1 138.13 233.44
  Q 137.17 233.25 136.83 234.17
  Q 136.72 234.47 136.40 234.43
  Q 134.82 234.25 134.11 236.00
  Q 133.80 236.77 134.61 236.59
  L 134.92 236.52
  A 1.08 1.07 70.1 0 1 136.11 237.08
  Q 136.79 238.40 138.05 238.60
  Q 138.58 238.68 138.96 239.06
  L 142.45 242.55
  Q 142.89 242.99 142.45 243.44
  L 138.79 247.14
  Q 138.42 247.51 137.91 247.40
  Q 137.18 247.25 136.92 248.01
  Q 136.76 248.47 136.26 248.47
  L 133.90 248.44
  Q 133.28 248.43 133.00 247.87
  Q 132.63 247.14 131.79 247.45
  Q 131.29 247.63 131.13 247.13
  Q 130.84 246.17 129.87 246.44
  Q 129.30 246.61 129.07 246.05
  Q 128.60 244.93 127.50 245.43
  A 1.16 1.14 -32.5 0 1 126.15 245.14
  L 125.06 243.88
  Q 124.60 243.35 123.90 243.46
  Q 123.21 243.57 122.98 242.87
  A 0.77 0.76 -19.5 0 0 121.98 242.40
  Q 121.27 242.68 121.00 241.94
  Q 120.69 241.10 119.82 241.35
  Q 117.69 241.97 116.60 240.50
  Q 116.34 240.14 116.00 240.44
  L 115.79 240.62
  Q 115.74 240.66 115.78 240.71
  Q 116.93 242.09 118.20 243.40
  Q 118.49 243.70 118.90 243.61
  L 119.20 243.56
  Q 119.43 243.51 119.61 243.68
  L 124.10 248.20
  Q 124.44 248.55 124.44 249.03
  L 124.43 252.03
  Q 124.43 252.52 124.08 252.86
  L 122.43 254.46
  Q 121.98 254.90 121.53 254.44
  L 117.79 250.65
  Q 117.40 250.26 116.87 250.42
  Q 116.21 250.63 115.91 249.97
  Q 115.25 248.50 113.91 248.41
  Q 113.43 248.37 113.10 248.03
  L 109.85 244.70
  A 1.08 1.05 -22.1 0 0 109.06 244.38
  L 105.78 244.49
  Q 105.24 244.50 105.07 244.00
  Q 104.97 243.72 104.74 243.53
  A 1.03 1.03 0.0 0 0 103.73 243.37
  Q 102.15 243.98 101.65 242.39
  Q 101.42 241.67 101.27 242.41
  Q 100.95 243.96 101.81 244.90
  Q 103.25 246.47 105.04 248.04
  Q 105.50 248.45 105.52 249.05
  Q 105.60 251.14 103.47 252.32
  Q 102.32 252.95 101.78 251.75
  Q 101.46 251.02 100.62 251.08
  Q 100.08 251.12 100.37 251.57
  Q 100.57 251.89 100.91 251.93
  Q 101.88 252.05 101.20 252.70
  L 100.40 253.47
  A 0.69 0.69 0.0 0 0 100.26 254.29
  Q 100.50 254.75 100.98 255.02
  A 0.88 0.87 -75.3 0 1 101.42 255.78
  Q 101.43 266.88 102.57 275.07
  Q 104.85 291.57 109.50 309.70
  Q 110.98 315.48 113.61 319.74
  Q 119.69 329.59 128.86 339.11
  C 129.49 339.75 129.40 340.36 130.00 340.98
  Q 134.56 345.74 140.12 351.22
  Q 140.49 351.60 141.02 351.52
  Q 141.60 351.44 141.96 351.90
  Q 144.60 355.32 147.72 356.93
  Q 148.16 357.16 148.44 357.57
  Q 149.03 358.45 150.01 358.49
  Q 150.57 358.51 150.88 358.98
  Q 151.38 359.76 152.31 359.63
  A 0.71 0.71 0.0 0 1 153.05 360.00
  L 153.20 360.29
  Q 153.70 361.22 153.69 360.17
  Q 153.68 359.19 153.52 358.10
  Q 153.36 356.98 153.92 356.13
  Q 155.09 354.34 156.91 354.47
  Q 157.44 354.51 157.82 354.90
  L 161.10 358.19
  Q 161.53 358.62 161.44 359.21
  Q 161.27 360.33 162.07 361.11
  A 1.16 1.15 -68.6 0 1 162.43 361.95
  L 162.42 366.00
  A 1.36 1.33 -71.0 0 0 162.92 367.05
  Q 163.52 367.53 163.50 368.33
  A 1.22 1.22 0.0 0 0 164.73 369.59
  L 168.95 369.57
  Q 169.70 369.56 170.11 368.94
  Q 170.48 368.38 171.12 368.64
  Q 171.65 368.86 171.64 368.29
  L 171.54 363.73
  Q 171.53 363.28 171.16 363.03
  L 170.88 362.84
  A 0.69 0.68 17.5 0 1 170.57 362.25
  L 170.57 358.20
  Q 170.57 357.70 170.26 357.32
  Q 168.79 355.49 169.92 353.25
  Q 170.65 351.81 171.28 350.41
  Q 172.03 348.74 173.70 347.43
  Q 174.15 347.08 174.45 347.56
  Q 174.97 348.38 175.81 348.51
  A 3.55 3.13 -88.6 0 1 178.51 351.73
  Q 178.51 351.79 178.57 351.81
  Q 179.88 352.29 179.38 353.59
  Q 179.04 354.50 179.86 354.94
  Q 180.48 355.28 180.47 355.98
  L 180.36 362.28
  Q 180.34 363.07 180.84 362.46
  Q 182.69 360.17 184.85 358.38
  A 0.06 0.06 0.0 0 0 184.86 358.29
  Q 184.65 358.10 184.58 357.84
  Q 184.47 357.42 184.81 357.14
  L 186.31 355.92
  A 0.81 0.80 70.4 0 0 186.60 355.30
  L 186.55 347.97
  Q 186.55 347.50 186.91 347.19
  Q 188.05 346.18 187.50 344.52
  A 1.26 1.25 -24.9 0 1 188.04 343.06
  Q 188.64 342.69 188.53 342.00
  Q 188.45 341.43 188.92 341.08
  Q 190.18 340.14 191.04 338.88
  Q 191.35 338.43 191.89 338.56
  Q 192.93 338.83 193.20 337.78
  Q 193.39 337.03 193.82 337.68
  Z
  M 234.12 366.85
  L 232.45 368.42
  Q 232.03 368.82 231.54 368.51
  L 221.52 362.35
  A 2.57 2.53 -2.7 0 1 220.82 361.72
  Q 220.11 360.78 218.97 360.43
  C 217.84 360.09 217.41 359.06 216.28 358.55
  Q 214.42 357.72 212.70 356.70
  Q 212.28 356.45 211.78 356.45
  L 206.75 356.39
  Q 206.05 356.38 205.90 357.07
  Q 205.79 357.61 205.34 357.44
  Q 204.70 357.20 204.22 357.68
  L 202.66 359.19
  Q 202.09 359.74 202.85 359.96
  Q 203.66 360.20 203.45 361.04
  A 1.01 1.01 0.0 0 0 203.95 362.17
  Q 205.30 362.88 205.55 364.27
  Q 205.65 364.77 206.03 365.12
  Q 207.39 366.38 208.33 367.83
  Q 210.96 371.92 214.02 376.29
  C 214.96 377.63 214.40 379.08 213.07 379.96
  Q 212.60 380.27 212.13 379.95
  Q 207.15 376.60 203.19 372.06
  C 202.85 371.67 202.37 371.50 201.86 371.42
  A 1.24 1.19 70.0 0 1 201.15 371.07
  L 194.78 364.63
  Q 194.52 364.37 194.25 364.63
  L 188.56 370.33
  Q 188.27 370.62 188.54 370.92
  Q 189.22 371.67 190.12 371.59
  Q 190.48 371.55 190.75 371.81
  Q 194.20 375.25 197.72 378.89
  C 199.06 380.27 199.90 381.96 201.18 383.40
  A 1.25 1.25 0.0 0 1 200.89 385.29
  Q 200.03 385.81 199.09 386.01
  Q 198.28 386.19 199.05 386.48
  C 215.28 392.49 231.28 394.69 248.38 394.48
  C 251.76 394.44 255.11 393.97 258.55 393.93
  Q 262.08 393.89 265.97 393.42
  Q 292.39 390.24 315.70 379.56
  Q 335.86 370.33 354.41 355.65
  Q 356.09 354.32 358.32 351.67
  A 0.39 0.38 -58.5 0 1 358.75 351.56
  Q 358.91 351.62 359.08 351.62
  Q 359.51 351.61 359.82 351.31
  L 367.36 343.72
  Q 367.56 343.52 367.85 343.56
  L 368.20 343.62
  Q 368.83 343.72 369.04 343.11
  Q 369.28 342.39 370.04 342.58
  Q 370.57 342.71 370.89 342.27
  L 371.11 341.97
  Q 371.40 341.57 371.90 341.55
  Q 372.85 341.51 373.36 340.74
  Q 385.47 322.45 394.85 306.90
  C 397.53 302.47 401.09 296.46 402.49 292.38
  Q 404.30 287.15 405.03 280.47
  C 405.65 274.89 406.81 269.29 406.70 263.42
  Q 406.48 251.47 406.65 237.99
  Q 406.66 237.56 406.43 237.24
  Q 406.26 237.01 405.99 236.93
  A 0.68 0.67 -80.9 0 1 405.52 236.27
  Q 405.60 233.29 405.58 230.12
  Q 405.58 229.72 405.41 229.37
  Q 405.28 229.10 405.03 228.92
  Q 404.60 228.61 404.59 228.08
  L 404.54 223.94
  A 1.22 1.20 -69.9 0 0 404.14 223.06
  L 403.89 222.83
  Q 403.60 222.57 403.60 222.18
  L 403.58 217.75
  A 1.34 1.33 0.0 0 0 402.25 216.43
  L 397.72 216.41
  Q 397.36 216.41 397.11 216.65
  Q 396.97 216.79 396.91 216.98
  Q 396.75 217.48 396.22 217.47
  L 389.70 217.37
  Q 389.40 217.36 389.34 217.66
  Q 388.97 219.35 390.17 220.22
  A 0.71 0.70 -72.2 0 1 390.46 220.79
  L 390.39 229.26
  Q 390.38 229.63 390.75 229.62
  L 395.20 229.52
  A 0.63 0.60 -20.9 0 1 395.65 229.71
  L 397.46 231.58
  Q 397.89 232.03 397.44 232.46
  L 396.32 233.56
  Q 395.89 233.98 396.32 234.42
  L 401.40 239.53
  Q 401.62 239.75 401.91 239.62
  Q 402.05 239.56 402.20 239.56
  Q 402.51 239.56 402.73 239.79
  L 405.91 243.04
  A 0.65 0.64 -47.5 0 1 405.94 243.90
  L 404.97 245.04
  Q 404.64 245.43 404.13 245.43
  L 398.96 245.44
  Q 398.22 245.44 397.94 244.76
  Q 397.69 244.16 397.03 244.41
  Q 396.27 244.70 395.96 243.94
  Q 395.58 242.99 394.61 243.40
  A 1.24 1.23 59.0 0 1 393.16 243.03
  Q 392.17 241.77 390.13 242.59
  A 0.32 0.32 0.0 0 0 389.96 243.02
  L 390.07 243.26
  Q 390.26 243.69 390.72 243.62
  Q 393.19 243.25 394.28 245.54
  Q 395.13 247.32 393.59 248.34
  Q 392.47 249.09 393.65 249.73
  Q 394.84 250.38 394.39 251.56
  Q 394.13 252.23 394.63 252.74
  C 396.34 254.47 398.01 256.49 400.16 257.66
  Q 402.18 258.74 403.34 260.64
  Q 403.57 261.01 403.37 261.40
  Q 401.98 264.03 398.99 263.42
  Q 394.88 262.59 391.66 260.76
  Q 391.19 260.49 390.65 260.53
  Q 389.26 260.62 388.56 259.47
  Q 388.26 258.98 387.76 259.25
  Q 387.11 259.61 386.61 260.19
  A 1.12 1.12 0.0 0 0 386.39 261.23
  Q 386.76 262.46 385.80 263.23
  Q 385.10 263.80 386.00 263.71
  C 388.40 263.47 391.15 263.37 393.47 264.17
  C 396.00 265.05 398.66 263.67 400.38 266.51
  Q 400.67 266.99 400.36 267.45
  Q 397.21 272.19 391.44 272.36
  Q 388.09 272.46 384.73 272.54
  Q 381.96 272.61 380.84 275.14
  L 380.56 275.77
  Q 379.50 278.17 382.10 278.59
  Q 390.14 279.88 397.79 281.83
  Q 399.61 282.30 398.66 283.92
  Q 396.95 286.82 393.55 287.12
  Q 387.80 287.62 380.53 287.42
  C 377.94 287.34 375.80 289.45 375.12 291.73
  Q 374.95 292.31 375.54 292.42
  Q 381.14 293.43 389.42 297.80
  Q 390.89 298.58 391.98 299.70
  A 0.86 0.85 44.2 0 1 392.00 300.87
  Q 389.10 304.10 384.49 303.48
  Q 377.55 302.54 370.19 302.31
  A 1.44 1.43 -66.5 0 0 369.13 302.73
  L 367.69 304.19
  Q 367.25 304.63 367.36 305.24
  Q 367.46 305.80 366.91 305.98
  Q 366.34 306.17 366.34 306.77
  L 366.35 308.12
  Q 366.36 308.79 367.02 308.65
  C 369.13 308.19 370.58 309.31 372.49 309.94
  Q 376.47 311.23 379.05 316.29
  Q 379.30 316.78 378.89 317.15
  Q 376.29 319.45 372.87 319.14
  Q 366.86 318.59 360.18 318.46
  Q 359.50 318.44 359.01 318.92
  Q 358.43 319.50 357.61 319.38
  A 1.82 1.81 26.8 0 0 356.05 319.89
  Q 355.57 320.37 354.87 320.50
  Q 354.29 320.61 353.87 321.03
  L 352.50 322.38
  A 1.05 1.04 -58.1 0 0 352.90 324.11
  Q 355.22 324.91 357.09 326.21
  C 358.28 327.05 358.33 328.26 359.24 329.26
  Q 361.65 331.88 364.21 334.20
  Q 364.77 334.70 364.08 335.01
  Q 363.35 335.33 362.95 336.03
  A 0.97 0.96 24.7 0 1 361.78 336.46
  Q 360.32 335.93 359.51 337.38
  Q 359.10 338.11 358.59 337.44
  C 357.57 336.10 355.72 336.56 354.19 335.95
  Q 350.73 334.59 347.01 332.95
  C 345.03 332.07 342.72 332.48 340.59 332.36
  C 339.16 332.29 338.09 333.65 337.39 334.68
  Q 337.07 335.16 337.47 335.57
  C 339.23 337.37 341.26 339.01 342.58 341.16
  Q 343.94 343.40 346.09 345.09
  Q 346.55 345.46 346.53 346.05
  Q 346.45 348.83 343.80 349.37
  Q 341.37 349.86 339.27 349.03
  Q 335.02 347.33 329.63 343.84
  Q 326.51 341.82 322.52 342.38
  C 320.66 342.65 319.65 344.31 318.37 345.49
  Q 317.82 346.00 318.37 346.51
  C 319.90 347.93 321.46 349.33 322.55 351.16
  Q 323.72 353.12 325.57 354.62
  Q 326.05 355.02 326.26 355.60
  Q 326.86 357.28 328.41 358.48
  Q 328.97 358.92 328.47 359.43
  L 326.89 361.03
  Q 326.49 361.43 325.93 361.43
  L 321.02 361.44
  Q 320.53 361.44 320.18 361.09
  L 309.68 350.56
  Q 309.27 350.14 308.72 350.35
  Q 307.21 350.93 306.54 349.36
  A 0.52 0.52 0.0 0 0 305.74 349.16
  Q 305.26 349.54 305.00 350.11
  Q 304.76 350.62 304.23 350.42
  Q 303.25 350.05 302.89 351.07
  A 0.70 0.70 0.0 0 1 301.92 351.47
  Q 301.71 351.37 301.48 351.40
  Q 300.82 351.50 301.12 352.10
  Q 301.44 352.72 302.05 353.03
  A 0.80 0.79 14.6 0 1 302.48 353.75
  L 302.36 357.25
  Q 302.34 357.72 302.76 357.94
  L 303.00 358.06
  Q 303.48 358.31 303.47 358.86
  L 303.37 362.11
  Q 303.36 362.59 303.73 362.91
  L 304.51 363.57
  Q 304.95 363.95 304.54 364.36
  L 302.32 366.57
  A 0.53 0.53 0.0 0 1 301.45 366.40
  Q 301.02 365.39 300.02 365.39
  Q 299.49 365.40 299.11 365.02
  L 290.91 356.79
  Q 290.50 356.38 289.92 356.42
  Q 289.15 356.48 288.79 355.71
  Q 288.43 354.95 287.70 355.35
  Q 286.42 356.05 285.84 354.56
  Q 285.56 353.84 285.20 354.52
  L 284.98 354.95
  Q 284.69 355.50 284.06 355.47
  L 281.95 355.38
  Q 281.47 355.35 281.12 355.68
  L 280.50 356.25
  Q 279.87 356.82 280.76 356.95
  Q 280.93 356.97 281.07 357.06
  Q 281.48 357.32 281.47 357.81
  L 281.37 362.26
  Q 281.36 362.73 281.77 362.94
  L 282.06 363.09
  Q 282.44 363.29 282.44 363.71
  L 282.43 369.06
  Q 282.43 369.72 281.86 370.07
  Q 281.29 370.42 281.03 371.04
  Q 280.75 371.67 280.26 371.18
  L 267.62 358.49
  Q 267.43 358.30 267.16 358.37
  Q 267.02 358.40 266.86 358.44
  Q 266.30 358.57 266.07 358.04
  Q 265.54 356.85 264.37 357.49
  A 0.84 0.84 0.0 0 1 263.29 357.24
  L 262.89 356.68
  A 0.88 0.87 67.0 0 0 262.04 356.33
  Q 260.04 356.65 257.84 356.23
  Q 257.43 356.15 257.34 356.57
  Q 256.96 358.50 258.25 359.30
  A 0.69 0.68 -59.9 0 1 258.49 360.21
  Q 257.82 361.44 259.08 362.12
  A 0.93 0.92 -61.5 0 1 259.45 363.38
  Q 258.88 364.42 259.91 364.96
  Q 260.50 365.28 260.47 365.95
  L 260.36 368.13
  A 0.91 0.90 15.3 0 0 260.85 368.98
  L 261.09 369.11
  Q 261.61 369.38 261.50 369.95
  Q 261.31 370.97 261.49 371.96
  Q 261.61 372.59 261.06 372.92
  Q 260.34 373.35 260.00 374.06
  Q 259.73 374.63 259.28 374.19
  L 249.64 364.55
  A 0.33 0.33 0.0 0 1 249.56 364.22
  L 249.65 363.94
  Q 249.75 363.64 249.53 363.42
  L 245.53 359.39
  Q 245.39 359.26 245.22 359.32
  L 244.96 359.40
  A 0.67 0.66 58.1 0 1 244.26 359.23
  L 241.62 356.44
  Q 241.44 356.25 241.20 356.34
  Q 241.04 356.41 240.88 356.45
  Q 240.26 356.60 240.04 356.00
  Q 239.71 355.08 238.83 355.46
  Q 238.40 355.65 238.23 355.22
  Q 238.02 354.69 237.54 354.45
  Q 237.02 354.19 236.48 354.37
  Q 234.80 354.93 233.92 353.83
  Q 233.59 353.42 233.07 353.42
  L 227.88 353.42
  Q 227.28 353.42 226.95 353.91
  Q 226.16 355.10 224.83 354.16
  Q 224.54 353.95 224.30 354.20
  Q 224.26 354.24 224.27 354.29
  Q 224.28 354.51 224.45 354.66
  Q 226.49 356.54 228.31 358.38
  Q 228.43 358.50 228.49 358.65
  Q 228.58 358.85 228.39 359.00
  A 0.35 0.34 47.7 0 0 228.37 359.51
  L 233.12 364.19
  Q 233.54 364.61 233.41 365.19
  Q 233.25 365.88 233.93 366.07
  Q 234.72 366.29 234.12 366.85
  Z
  M 251.94 340.08
  Q 251.61 340.19 251.35 340.43
  Q 250.81 340.92 251.53 340.81
  Q 255.66 340.21 259.76 340.90
  Q 259.83 340.91 259.84 340.85
  L 259.93 340.56
  Q 260.01 340.32 259.76 340.32
  C 257.76 340.27 255.69 337.66 254.39 336.28
  Q 253.75 335.61 253.42 336.48
  Q 253.32 336.74 253.41 337.03
  Q 253.60 337.68 252.98 337.95
  Q 252.09 338.33 252.36 339.26
  Q 252.54 339.87 251.94 340.08
  Z
  M 183.99 380.05
  Q 184.51 380.84 185.51 380.97
  Q 186.16 381.06 185.72 380.57
  Q 185.14 379.94 183.99 380.05
  Q 182.86 377.91 180.72 378.12
  Q 179.56 378.23 180.64 378.68
  L 183.99 380.05
  Z"
/>
<path fill="#585858" d="
  M 369.03 266.98
  C 363.58 267.06 354.75 267.81 351.04 262.39
  A 0.77 0.76 -48.8 0 1 350.99 261.62
  Q 351.99 259.67 354.16 260.28
  Q 361.67 262.39 368.40 263.88
  Q 369.69 264.17 370.68 265.14
  Q 371.10 265.55 370.60 265.85
  Q 370.17 266.10 369.90 266.51
  Q 369.59 266.97 369.03 266.98
  Z"
/>
<ellipse fill="#585858" cx="0.00" cy="0.00" transform="translate(314.14,323.45) rotate(65.4)" rx="11.18" ry="3.46"/>
<ellipse fill="#585858" cx="0.00" cy="0.00" transform="translate(296.19,328.47) rotate(79.6)" rx="10.22" ry="3.31"/>
<path fill="#585858" d="
  M 267.48 335.84
  Q 267.05 335.56 267.02 334.89
  A 0.96 0.88 56.5 0 1 267.08 334.51
  L 272.63 319.80
  A 1.25 1.25 0.0 0 1 274.52 319.21
  Q 276.35 320.49 277.65 322.41
  C 279.47 325.10 278.87 328.42 279.87 331.46
  A 1.72 1.72 0.0 0 1 278.47 333.70
  C 275.46 334.12 272.55 337.79 270.62 339.91
  Q 270.25 340.32 269.75 340.07
  Q 267.73 339.06 267.96 336.84
  Q 268.03 336.19 267.48 335.84
  Z"
/>
</svg>
