<svg id="Capa_1" data-name="Capa 1" xmlns="http://www.w3.org/2000/svg" viewBox="0 0 40 40"><defs><style>.cls-1,.cls-3{fill:none;stroke-linecap:round;}.cls-1{stroke:#363636;stroke-linejoin:round;}.cls-2{fill:#a72c2c;}.cls-3{stroke:#a72c2c;stroke-miterlimit:10;}</style></defs><title>05-moto-equipacion-carretera-chaquetas</title><line class="cls-1" x1="20.11" y1="33.35" x2="20.11" y2="14.86"/><path class="cls-1" d="M16.68,3.41A3.7,3.7,0,0,0,20,5.71,3.55,3.55,0,0,0,23.4,3.62l.9,1.15a4.75,4.75,0,0,1-4.19,3,4.36,4.36,0,0,1-4.34-3.12Z"/><path class="cls-1" d="M23.41,3.57a2.59,2.59,0,0,1-.19-.36S23.13,3,22.73,3a19.45,19.45,0,0,1-2.73.3A19.45,19.45,0,0,1,17.27,3c-.4,0-.49.2-.49.2s-.06.14-.17.34"/><path class="cls-1" d="M14,5.21a7.29,7.29,0,0,0-6.29,4.88A72.23,72.23,0,0,0,4,22.3a29.75,29.75,0,0,0,1.4,8.79C6.25,33.2,7.56,37,7.56,37s2.33.54,4-2.24a24.37,24.37,0,0,1-2.17-6.55,12.34,12.34,0,0,1,.41-6.8c.6-1.76,1.14-3.69,1.14-3.69s.76,7.24.82,9.46.12,5,.12,5,2.76,1.26,8.22,1.26,8.08-1.26,8.08-1.26.06-2.73.12-5,.82-9.46.82-9.46.54,1.93,1.14,3.69a12.34,12.34,0,0,1,.41,6.8,24.37,24.37,0,0,1-2.17,6.55c1.64,2.78,4,2.24,4,2.24s1.31-3.76,2.13-5.87A29.75,29.75,0,0,0,36,22.3a72.23,72.23,0,0,0-3.71-12.21A7.28,7.28,0,0,0,26,5.22"/><path class="cls-2" d="M22.67,30.82a.49.49,0,0,0-.2.48.52.52,0,0,0,.2.33.49.49,0,0,0,.37.09h0a.51.51,0,0,0,.4-.57.48.48,0,0,0-.2-.33.49.49,0,0,0-.37-.09A.54.54,0,0,0,22.67,30.82Z"/><line class="cls-3" x1="24.81" y1="30.97" x2="26.32" y2="30.64"/><line class="cls-1" x1="20.11" y1="10.96" x2="20.11" y2="7.78"/><path class="cls-2" d="M20.1,12.38a.47.47,0,0,0-.44.28.5.5,0,0,0,0,.38.53.53,0,0,0,.25.28h0a.5.5,0,0,0,.44-.89A.53.53,0,0,0,20.1,12.38Z"/><path class="cls-1" d="M29.09,17.68s-.09-4.82,1.22-2.82,3.93,8,3.18,10-5,9.82-5,9.82"/><path class="cls-1" d="M10.83,17.93s.09-4.82-1.22-2.82-3.93,8-3.18,10,5,9.82,5,9.82"/><path class="cls-1" d="M11.46,6.21s4,17.81,4.63,18.59a17.11,17.11,0,0,0,1.76,1.83"/><path class="cls-1" d="M28.76,6.21S24.73,24,24.13,24.8a18.22,18.22,0,0,1-1.76,1.83"/></svg>