<?xml version="1.0" encoding="UTF-8" standalone="no"?>
<!DOCTYPE svg PUBLIC "-//W3C//DTD SVG 1.1//EN" "http://www.w3.org/Graphics/SVG/1.1/DTD/svg11.dtd">
<svg xmlns="http://www.w3.org/2000/svg" version="1.1" viewBox="0.00 0.00 301.00 301.00">
<path fill="#414141" d="
  M 66.76 170.86
  Q 46.70 161.64 29.97 143.53
  C 24.48 137.59 18.67 128.69 17.22 120.26
  C 14.98 107.33 24.68 96.59 35.83 91.48
  C 38.89 90.07 42.18 89.22 44.34 86.46
  C 57.76 69.30 70.68 55.95 89.95 47.45
  Q 103.19 41.62 115.36 44.64
  C 122.21 46.34 127.47 50.08 126.37 57.63
  Q 123.29 78.74 140.58 90.67
  Q 142.38 91.91 143.75 90.35
  Q 152.10 80.92 162.57 77.72
  Q 166.73 76.44 172.15 77.01
  C 179.03 77.73 181.33 81.44 183.51 87.54
  C 192.95 114.05 202.31 140.54 212.41 167.17
  Q 215.37 174.95 218.31 178.57
  C 223.30 184.73 230.08 187.34 236.96 190.50
  Q 252.87 197.80 266.91 204.22
  C 274.17 207.54 285.83 216.47 282.78 225.64
  Q 281.87 228.38 277.26 234.06
  C 254.87 261.64 217.03 265.79 183.74 259.61
  Q 168.36 256.76 155.45 250.62
  Q 127.18 237.17 111.51 208.15
  Q 105.40 196.83 93.86 187.71
  Q 80.58 177.22 66.76 170.86
  Z
  M 178.19 155.57
  Q 178.13 155.16 178.14 154.75
  Q 178.25 151.49 181.42 150.69
  L 194.06 147.49
  Q 196.36 146.91 195.50 144.70
  L 194.05 140.93
  Q 193.41 139.29 191.70 139.68
  L 179.55 142.44
  Q 175.81 143.28 174.43 139.71
  Q 174.23 139.22 174.32 138.68
  Q 174.82 135.59 176.55 135.06
  Q 184.17 132.71 188.55 131.90
  Q 190.79 131.48 189.99 129.35
  L 188.36 124.99
  Q 187.62 123.01 185.56 123.50
  Q 178.63 125.14 172.31 127.12
  C 165.40 129.30 163.15 121.03 169.43 119.38
  Q 176.03 117.64 182.57 115.78
  Q 184.75 115.16 183.93 113.05
  L 182.02 108.19
  Q 181.41 106.64 179.77 106.86
  C 166.31 108.65 154.13 108.35 142.32 101.33
  Q 136.16 97.67 132.67 95.01
  C 120.74 85.89 115.49 71.21 117.85 55.51
  A 1.24 1.24 0.0 0 0 117.51 54.46
  Q 116.65 53.58 115.29 53.25
  C 104.74 50.68 95.08 53.17 86.00 58.53
  A 1.56 1.56 0.0 0 0 85.52 60.77
  C 94.43 73.43 99.60 86.51 98.39 101.52
  Q 98.29 102.78 99.25 103.57
  Q 113.26 115.06 129.83 113.77
  C 138.21 113.12 146.12 114.32 152.21 120.40
  C 157.63 125.82 159.85 132.77 159.48 140.10
  Q 158.59 158.17 160.96 171.95
  C 162.77 182.52 167.25 195.75 177.50 200.65
  C 179.46 201.59 181.60 199.81 182.80 198.43
  C 190.29 189.76 197.51 184.65 209.40 183.76
  A 1.38 1.38 0.0 0 0 210.43 181.60
  Q 207.34 177.09 205.70 172.09
  Q 205.06 170.13 203.03 170.63
  Q 195.54 172.46 188.78 173.93
  C 182.48 175.30 180.96 167.22 187.10 165.87
  Q 193.99 164.36 200.25 162.88
  Q 202.18 162.43 201.47 160.58
  L 199.88 156.44
  Q 199.20 154.69 197.38 155.14
  Q 190.23 156.94 183.15 158.56
  A 4.16 3.80 -11.4 0 1 178.19 155.57
  Z
  M 89.92 93.23
  C 88.91 83.55 84.48 73.23 78.55 65.35
  A 1.50 1.49 -37.0 0 0 76.45 65.06
  C 67.86 71.58 60.25 80.21 53.58 88.50
  C 52.49 89.85 51.01 91.73 51.18 93.25
  Q 51.58 96.94 54.39 101.63
  Q 61.17 112.97 70.77 122.03
  C 72.11 123.29 73.48 123.92 75.01 122.72
  C 84.39 115.43 91.22 105.62 89.92 93.23
  Z
  M 177.37 95.22
  Q 176.03 91.07 174.23 86.77
  C 173.75 85.62 172.48 85.34 171.36 85.26
  C 163.24 84.72 156.70 88.77 151.14 94.38
  Q 149.79 95.74 151.54 96.53
  C 159.06 99.93 167.93 99.81 176.30 99.14
  C 177.83 99.02 178.51 97.68 177.80 96.28
  Q 177.55 95.78 177.37 95.22
  Z
  M 190.74 239.61
  C 181.43 238.57 172.79 234.26 165.01 228.69
  C 153.14 220.18 141.55 208.84 134.72 196.00
  C 132.20 191.26 128.96 186.68 125.41 182.62
  C 112.67 168.08 96.01 153.62 79.63 140.99
  C 68.30 132.25 57.99 121.86 50.06 110.62
  Q 46.31 105.30 43.83 98.94
  Q 43.31 97.62 41.94 97.99
  Q 32.99 100.41 28.11 107.79
  C 22.97 115.59 25.57 123.74 30.35 130.87
  C 39.33 144.28 53.76 155.49 68.03 162.18
  Q 79.34 167.49 80.79 168.35
  Q 94.08 176.25 105.00 186.20
  Q 112.14 192.70 117.31 201.22
  C 120.22 206.01 122.70 211.27 126.01 215.75
  C 139.35 233.84 158.45 245.57 180.51 250.54
  Q 202.67 255.54 226.01 252.92
  Q 241.70 251.15 255.48 242.63
  Q 257.39 241.45 258.98 240.05
  A 0.50 0.49 -56.0 0 0 258.82 239.21
  Q 258.19 238.99 257.51 239.08
  Q 244.65 240.85 233.27 241.39
  Q 214.61 242.28 190.74 239.61
  Z
  M 159.64 198.95
  Q 160.13 199.13 160.65 199.17
  Q 162.31 199.30 161.48 197.84
  C 158.46 192.59 155.81 187.10 154.27 181.15
  C 151.09 168.87 150.21 155.40 151.02 142.36
  C 151.64 132.42 148.96 123.69 137.95 122.14
  C 133.26 121.49 128.49 122.71 123.73 122.35
  C 113.09 121.54 105.16 117.66 96.51 111.98
  A 1.28 1.28 0.0 0 0 94.68 112.46
  Q 89.66 122.03 80.82 128.41
  A 1.75 1.75 0.0 0 0 80.77 131.21
  C 81.64 131.88 82.40 132.85 83.27 133.50
  Q 102.07 147.50 119.16 163.79
  Q 131.83 175.86 139.75 187.95
  C 141.53 190.66 143.81 192.08 146.59 193.47
  Q 152.51 196.44 159.64 198.95
  Z
  M 259.54 209.85
  Q 242.61 201.96 227.50 195.18
  Q 221.42 192.46 216.75 191.98
  Q 210.21 191.31 203.99 192.90
  C 197.57 194.54 193.67 198.23 189.60 203.10
  C 180.90 213.52 166.24 210.12 155.15 206.32
  A 1.06 1.05 11.9 0 0 153.75 207.23
  C 153.67 208.30 154.84 208.92 155.46 209.59
  Q 163.97 218.72 175.02 225.44
  C 181.34 229.29 187.58 230.97 195.00 231.72
  Q 221.25 234.36 244.59 232.25
  Q 255.04 231.31 265.48 228.77
  C 268.88 227.95 277.40 225.23 274.09 220.18
  C 270.77 215.09 265.24 212.51 259.54 209.85
  Z"
/>
<rect fill="#414141" x="-25.87" y="-6.12" transform="translate(50.68,131.72) rotate(44.5)" width="51.74" height="12.24" rx="6.00"/>
</svg>
